<svg xmlns="http://www.w3.org/2000/svg" viewBox="0 0 200 196.17"><title>drop</title><rect y="160.17" width="36" height="36" style="fill:none"/><path d="M168,116v32a16,16,0,0,1-16,16H52a16,16,0,0,1-16-16V116a16,16,0,0,0-16-16H16A16,16,0,0,0,0,116v68a16,16,0,0,0,16,16H184a16,16,0,0,0,16-16V116a16,16,0,0,0-16-16h0A16,16,0,0,0,168,116Z" transform="translate(0 -3.83)"/><line x1="102" y1="122.22" x2="102" y2="14.5" style="fill:#fff;stroke:#000;stroke-linecap:round;stroke-miterlimit:10;stroke-width:29px"/><path d="M168,72.54" transform="translate(0 -3.83)" style="fill:#fff;stroke:#000;stroke-miterlimit:10"/><path d="M168,72.54" transform="translate(0 -3.83)" style="fill:#fff;stroke:#000;stroke-miterlimit:10"/><path d="M168,77.26" transform="translate(0 -3.83)" style="fill:#fff;stroke:#000;stroke-miterlimit:10"/><line x1="102" y1="127.56" x2="154.33" y2="77.17" style="fill:none;stroke:#000;stroke-linecap:round;stroke-miterlimit:10;stroke-width:29px"/><line x1="102" y1="127.56" x2="49.67" y2="77.17" style="fill:none;stroke:#000;stroke-linecap:round;stroke-miterlimit:10;stroke-width:29px"/></svg>