<svg id="Layer_1" data-name="Layer 1" xmlns="http://www.w3.org/2000/svg" viewBox="0 0 200 194.17"><defs><style>.cls-1,.cls-4{fill:none;}.cls-2,.cls-3{fill:#fff;}.cls-2,.cls-3,.cls-4{stroke:#000;stroke-miterlimit:10;}.cls-2,.cls-4{stroke-linecap:round;stroke-width:29px;}</style></defs><title>drop</title><rect class="cls-1" y="158.17" width="36" height="36"/><path d="M168,116v32a16,16,0,0,1-16,16H52a16,16,0,0,1-16-16V116a16,16,0,0,0-16-16H16A16,16,0,0,0,0,116v68a16,16,0,0,0,16,16H184a16,16,0,0,0,16-16V116a16,16,0,0,0-16-16h0A16,16,0,0,0,168,116Z" transform="translate(0 -5.83)"/><line class="cls-2" x1="102" y1="19.84" x2="102" y2="127.56"/><path class="cls-3" d="M36,79.17" transform="translate(0 -5.83)"/><path class="cls-3" d="M36,79.17" transform="translate(0 -5.83)"/><path class="cls-3" d="M36,74.46" transform="translate(0 -5.83)"/><line class="cls-4" x1="102" y1="14.5" x2="49.67" y2="64.9"/><line class="cls-4" x1="102" y1="14.5" x2="154.33" y2="64.9"/></svg>